<?xml version="1.0" encoding="utf-8"?>
<!-- Generator: Adobe Illustrator 20.1.0, SVG Export Plug-In . SVG Version: 6.00 Build 0)  -->
<svg version="1.1" id="Layer_1" xmlns="http://www.w3.org/2000/svg" xmlns:xlink="http://www.w3.org/1999/xlink" x="0px" y="0px"
	 viewBox="0 0 242 200" style="enable-background:new 0 0 242 200;" xml:space="preserve">
<style type="text/css">
	.st0{fill:#6D6E71;stroke:#6D6E71;stroke-miterlimit:10;}
	.st1{fill:#FFFFFF;stroke:#000000;stroke-miterlimit:10;}
	.st2{fill:none;stroke:#8B5E3C;stroke-width:5;stroke-miterlimit:10;}
	.st3{fill:none;stroke:#00AEEF;stroke-miterlimit:10;}
</style>
<ellipse class="st0" cx="172.386" cy="122.404" rx="5.479" ry="7.988"/>
<ellipse class="st0" cx="67.151" cy="122.404" rx="5.479" ry="7.988"/>
<path class="st1" d="M14.341,126.318c-0.221,1.639-0.349,3.304-0.349,4.993c0,23.715,22.426,42.939,50.09,42.939
	s50.09-19.224,50.09-42.939c0-1.69-0.126-3.353-0.349-4.993H14.341z"/>
<path class="st1" d="M155.079,126.318c-0.172,1.639-0.271,3.304-0.271,4.993c0,23.715,17.458,42.939,38.995,42.939
	s38.995-19.224,38.995-42.939c0-1.69-0.098-3.353-0.271-4.993H155.079z"/>
<line class="st2" x1="46.429" y1="45.434" x2="45.744" y2="126.318"/>
<line class="st2" x1="209.263" y1="45.725" x2="208.578" y2="126.61"/>
<polygon class="st1" points="46.868,26.461 86.814,73.893 6.922,73.893 "/>
<polygon class="st1" points="208.921,26.461 232.797,73.893 185.044,73.893 "/>
<rect x="69.964" y="115.557" class="st0" width="21.502" height="4.27"/>
<rect x="148.155" y="115.557" class="st0" width="21.502" height="4.27"/>
<g>
	<path class="st3" d="M15.398,163.466c11.698-0.139,11.779,14.441,23.477,14.301c11.699-0.139,11.618-14.718,23.317-14.856
		c11.7-0.139,11.781,14.441,23.481,14.301c11.701-0.139,11.62-14.718,23.321-14.856s11.782,14.441,23.484,14.301
		c11.701-0.139,11.62-14.718,23.321-14.856c11.702-0.139,11.783,14.441,23.484,14.301c11.703-0.139,11.622-14.718,23.325-14.856
		s11.785,14.441,23.488,14.301"/>
</g>
</svg>
