<svg id="Layer_1" data-name="Layer 1" xmlns="http://www.w3.org/2000/svg" viewBox="0 0 242 200"><defs><style>.cls-1{fill:#6d6e71;stroke:#6d6e71;}.cls-1,.cls-2,.cls-3,.cls-4{stroke-miterlimit:10;}.cls-2{fill:#fff;stroke:#000;}.cls-3,.cls-4{fill:none;}.cls-3{stroke:#8b5e3c;stroke-width:5px;}.cls-4{stroke:#00aeef;}</style></defs><title>boatattack</title><ellipse class="cls-1" cx="172.39" cy="122.4" rx="5.48" ry="7.99"/><ellipse class="cls-1" cx="67.15" cy="122.4" rx="5.48" ry="7.99"/><path class="cls-2" d="M14.34,126.32a37.33,37.33,0,0,0-.35,5c0,23.71,22.43,42.94,50.09,42.94s50.09-19.22,50.09-42.94a37,37,0,0,0-.35-5Z"/><path class="cls-2" d="M155.08,126.32a47.81,47.81,0,0,0-.27,5c0,23.71,17.46,42.94,39,42.94s39-19.22,39-42.94a47.54,47.54,0,0,0-.27-5Z"/><line class="cls-3" x1="46.43" y1="45.43" x2="45.74" y2="126.32"/><line class="cls-3" x1="209.26" y1="45.72" x2="208.58" y2="126.61"/><polygon class="cls-2" points="46.87 26.46 86.81 73.89 6.92 73.89 46.87 26.46"/><polygon class="cls-2" points="208.92 26.46 232.8 73.89 185.04 73.89 208.92 26.46"/><rect class="cls-1" x="69.96" y="115.56" width="21.5" height="4.27"/><rect class="cls-1" x="148.15" y="115.56" width="21.5" height="4.27"/><path class="cls-4" d="M15.4,163.47c11.7-.14,11.78,14.44,23.48,14.3S50.49,163,62.19,162.91,74,177.35,85.67,177.21,97.29,162.49,109,162.36s11.78,14.44,23.48,14.3,11.62-14.72,23.32-14.86,11.78,14.44,23.48,14.3,11.62-14.72,23.32-14.86,11.79,14.44,23.49,14.3"/></svg>