<?xml version="1.0" encoding="utf-8"?>
<!-- Generator: Adobe Illustrator 20.1.0, SVG Export Plug-In . SVG Version: 6.00 Build 0)  -->
<svg version="1.1" id="Layer_1" xmlns="http://www.w3.org/2000/svg" xmlns:xlink="http://www.w3.org/1999/xlink" x="0px" y="0px"
	 viewBox="0 0 240 120" style="enable-background:new 0 0 240 120;" xml:space="preserve">
<style type="text/css">
	.st0{fill:none;stroke:#00AEEF;stroke-miterlimit:10;}
	.st1{fill:none;stroke:#F7941D;stroke-miterlimit:10;}
	.st2{fill:#C49A6C;stroke:#603913;stroke-miterlimit:10;}
	.st3{fill:none;stroke:#000000;stroke-miterlimit:10;}
	.st4{font-family:'MyriadPro-Regular';}
	.st5{font-size:10.1232px;}
</style>
<g>
	<path class="st0" d="M25.575,11.164c0,9.691-12,9.691-12,19.382c0,9.691,12,9.691,12,19.382c0,9.691-12,9.691-12,19.383
		c0,9.693,12,9.693,12,19.385s-12,9.693-12,19.385"/>
</g>
<g>
	<path class="st0" d="M46.808,12.164c0,9.691-12,9.691-12,19.382c0,9.691,12,9.691,12,19.382c0,9.691-12,9.691-12,19.383
		c0,9.693,12,9.693,12,19.385s-12,9.693-12,19.385"/>
</g>
<g>
	<path class="st0" d="M68.041,13.534c0,9.691-12,9.691-12,19.382c0,9.691,12,9.691,12,19.382c0,9.691-12,9.691-12,19.383
		c0,9.693,12,9.693,12,19.385c0,9.693-12,9.693-12,19.385"/>
</g>
<g>
	<path class="st1" d="M144.728,9.979c0,9.691-12,9.691-12,19.382c0,9.691,12,9.691,12,19.382c0,9.691-12,9.691-12,19.383
		c0,9.693,12,9.693,12,19.385s-12,9.693-12,19.385"/>
</g>
<g>
	<path class="st1" d="M165.961,10.979c0,9.691-12,9.691-12,19.382c0,9.691,12,9.691,12,19.382c0,9.691-12,9.691-12,19.383
		c0,9.693,12,9.693,12,19.385s-12,9.693-12,19.385"/>
</g>
<g>
	<path class="st1" d="M187.194,12.349c0,9.691-12,9.691-12,19.382c0,9.691,12,9.691,12,19.382c0,9.691-12,9.691-12,19.383
		c0,9.693,12,9.693,12,19.385c0,9.693-12,9.693-12,19.385"/>
</g>
<rect x="196.854" y="90.193" class="st2" width="36.779" height="19.074"/>
<rect x="195.54" y="71.147" class="st2" width="14.449" height="16.747"/>
<rect x="215.416" y="49.802" class="st2" width="15.434" height="38.092"/>
<path class="st3" d="M97.925,8.644c-14.194,0-25.7,5.832-25.7,13.026c0,2.312,1.201,4.48,3.286,6.363l-10.358,9.471l19.822-4.596
	c3.806,1.129,8.222,1.788,12.95,1.788c14.194,0,25.7-5.832,25.7-13.026C123.625,14.476,112.118,8.644,97.925,8.644z"/>
<path class="st3" d="M110.05,75.209c11.244,0,20.36-6.431,20.36-14.364c0-2.55-0.952-4.941-2.603-7.017l8.206-10.444l-15.703,5.068
	c-3.015-1.245-6.513-1.971-10.259-1.971c-11.244,0-20.36,6.431-20.36,14.364C89.691,68.778,98.806,75.209,110.05,75.209z"/>
<text transform="matrix(0.4939 0 0 1 106.3342 58.7459)"><tspan x="0" y="0" class="st4 st5">Yes!</tspan><tspan x="-24.371" y="9" class="st4 st5">we made more!</tspan></text>
<text transform="matrix(0.4939 0 0 1 74.5918 26.4309)" class="st4 st5">You have more items?</text>
</svg>
