<svg id="Layer_1" data-name="Layer 1" xmlns="http://www.w3.org/2000/svg" viewBox="0 0 221.06 142.89"><defs><style>.cls-1,.cls-2,.cls-4{fill:none;}.cls-1{stroke:#00aeef;}.cls-1,.cls-2,.cls-3,.cls-4{stroke-miterlimit:10;}.cls-2{stroke:#f7941d;}.cls-3{fill:#c49a6c;stroke:#603913;}.cls-4{stroke:#231f20;}.cls-5{font-size:14.16px;}.cls-5,.cls-8{fill:#231f20;font-family:MyriadPro-Regular, Myriad Pro;}.cls-6{letter-spacing:-0.08em;}.cls-7{letter-spacing:-0.01em;}.cls-8{font-size:15.39px;}.cls-9{letter-spacing:-0.08em;}.cls-10{letter-spacing:-0.01em;}.cls-11{letter-spacing:-0.01em;}.cls-12{letter-spacing:-0.01em;}.cls-13{letter-spacing:-0.01em;}</style></defs><title>producerconsumer</title><path class="cls-1" d="M25.58,16.42c0,13.55-12,13.55-12,27.11s12,13.55,12,27.11-12,13.55-12,27.11,12,13.56,12,27.11-12,13.56-12,27.11" transform="translate(-13.08 -12.4)"/><path class="cls-1" d="M46.81,17.82c0,13.55-12,13.55-12,27.11s12,13.55,12,27.11-12,13.55-12,27.11,12,13.56,12,27.11-12,13.56-12,27.11" transform="translate(-13.08 -12.4)"/><path class="cls-1" d="M68,19.74c0,13.55-12,13.55-12,27.11S68,60.4,68,74,56,87.51,56,101.06s12,13.56,12,27.11-12,13.56-12,27.11" transform="translate(-13.08 -12.4)"/><path class="cls-2" d="M144.73,14.77c0,13.55-12,13.55-12,27.11s12,13.55,12,27.11-12,13.55-12,27.11,12,13.56,12,27.11-12,13.56-12,27.11" transform="translate(-13.08 -12.4)"/><path class="cls-2" d="M166,16.17c0,13.55-12,13.55-12,27.11s12,13.55,12,27.11-12,13.55-12,27.11S166,111,166,124.6s-12,13.56-12,27.11" transform="translate(-13.08 -12.4)"/><path class="cls-2" d="M187.19,18.08c0,13.55-12,13.55-12,27.11s12,13.55,12,27.11-12,13.55-12,27.11,12,13.56,12,27.11-12,13.56-12,27.11" transform="translate(-13.08 -12.4)"/><rect class="cls-3" x="183.78" y="114.55" width="36.78" height="26.68"/><rect class="cls-3" x="182.46" y="87.92" width="14.45" height="23.42"/><rect class="cls-3" x="202.34" y="58.06" width="15.43" height="53.28"/><path class="cls-4" d="M97.92,12.9c-14.19,0-25.7,8.16-25.7,18.22A14.26,14.26,0,0,0,75.51,40L65.15,53.26,85,46.83a33.89,33.89,0,0,0,13,2.5c14.19,0,25.7-8.16,25.7-18.22S112.12,12.9,97.92,12.9Z" transform="translate(-13.08 -12.4)"/><path class="cls-4" d="M103.24,106c14.19,0,25.7-9,25.7-20.09a16.73,16.73,0,0,0-3.29-9.81L136,61.49l-19.82,7.09a31.15,31.15,0,0,0-13-2.76c-14.19,0-25.7,9-25.7,20.09S89,106,103.24,106Z" transform="translate(-13.08 -12.4)"/><text class="cls-5" transform="translate(84.43 70.57) scale(0.42 1)"><tspan class="cls-6">Y</tspan><tspan x="6.58" y="0">es!</tspan><tspan class="cls-7" x="-34.48" y="12.59">w</tspan><tspan x="-24.2" y="12.59">e made mo</tspan><tspan class="cls-7" x="42.18" y="12.59">r</tspan><tspan x="46.67" y="12.59">e!</tspan></text><text class="cls-8" transform="translate(67.53 17.87) scale(0.42 1)"><tspan class="cls-9">Y</tspan><tspan x="7.16" y="0">ou h</tspan><tspan class="cls-10" x="35.89" y="0">a</tspan><tspan class="cls-11" x="43.19" y="0">v</tspan><tspan x="50.44" y="0">e</tspan><tspan x="0" y="11.96" xml:space="preserve"> mo</tspan><tspan class="cls-12" x="24.55" y="11.96">r</tspan><tspan x="29.43" y="11.96">e i</tspan><tspan class="cls-13" x="44" y="11.96">t</tspan><tspan x="49.01" y="11.96">ems?</tspan></text></svg>