<svg id="Layer_1" data-name="Layer 1" xmlns="http://www.w3.org/2000/svg" viewBox="0 0 242 200"><defs><style>.cls-1,.cls-2,.cls-4{fill:none;}.cls-1{stroke:#00aeef;}.cls-1,.cls-2,.cls-3,.cls-4{stroke-miterlimit:10;}.cls-2{stroke:#f7941d;}.cls-3{fill:#c49a6c;stroke:#603913;}.cls-4{stroke:#231f20;}.cls-5{font-size:23px;}.cls-5,.cls-8{fill:#231f20;font-family:MyriadPro-Regular, Myriad Pro;}.cls-6{letter-spacing:-0.08em;}.cls-7{letter-spacing:-0.01em;}.cls-8{font-size:22px;letter-spacing:-0.06em;}.cls-9{letter-spacing:0.01em;}.cls-10{letter-spacing:0.01em;}.cls-11{letter-spacing:0em;}.cls-12{letter-spacing:0em;}.cls-13{letter-spacing:0.01em;}</style></defs><title>producerconsumer</title><path class="cls-1" d="M26.58,31.42c0,13.55-12,13.55-12,27.11s12,13.55,12,27.11-12,13.55-12,27.11,12,13.56,12,27.11-12,13.56-12,27.11"/><path class="cls-1" d="M47.81,32.82c0,13.55-12,13.55-12,27.11s12,13.55,12,27.11-12,13.55-12,27.11,12,13.56,12,27.11-12,13.56-12,27.11"/><path class="cls-2" d="M167,31.17c0,13.55-12,13.55-12,27.11s12,13.55,12,27.11-12,13.55-12,27.11S167,126,167,139.6s-12,13.56-12,27.11"/><path class="cls-2" d="M188.19,33.08c0,13.55-12,13.55-12,27.11s12,13.55,12,27.11-12,13.55-12,27.11,12,13.56,12,27.11-12,13.56-12,27.11"/><rect class="cls-3" x="197.85" y="141.95" width="36.78" height="26.68"/><rect class="cls-3" x="196.54" y="115.32" width="14.45" height="23.42"/><rect class="cls-3" x="216.42" y="85.46" width="15.43" height="53.28"/><path class="cls-4" d="M101.51,17.14c-22.09,0-40,10.68-40,23.86,0,4.24,1.87,8.21,5.11,11.66L50.51,70l30.85-8.42a61.48,61.48,0,0,0,20.15,3.28c22.09,0,40-10.68,40-23.86S123.6,17.14,101.51,17.14Z"/><path class="cls-4" d="M105.7,130.46c21.13,0,38.26-10.65,38.26-23.8A17.33,17.33,0,0,0,139.06,95l15.42-17.3L125,86.14a56.64,56.64,0,0,0-19.28-3.27c-21.13,0-38.26,10.65-38.26,23.8S84.57,130.46,105.7,130.46Z"/><text class="cls-5" transform="translate(98.19 104.75) scale(0.42 1)"><tspan class="cls-6">Y</tspan><tspan x="10.69" y="0">es!</tspan><tspan class="cls-7" x="-56.02" y="12.59">w</tspan><tspan x="-39.32" y="12.59">e made mo</tspan><tspan class="cls-7" x="68.53" y="12.59">r</tspan><tspan x="75.82" y="12.59">e!</tspan></text><text class="cls-8" transform="translate(75.72 40.73) scale(0.42 1)">Y<tspan class="cls-9" x="10.54" y="0">ou h</tspan><tspan class="cls-10" x="52.84" y="0">a</tspan><tspan class="cls-11" x="63.58" y="0">v</tspan><tspan class="cls-9" x="74.25" y="0">e</tspan><tspan class="cls-9"><tspan x="0" y="16" xml:space="preserve"> mo</tspan><tspan class="cls-12" x="36.01" y="16">r</tspan><tspan x="43.3" y="16">e i</tspan><tspan class="cls-13" x="65.05" y="16">t</tspan><tspan x="72.51" y="16">ems?</tspan></tspan></text></svg>