<?xml version="1.0" encoding="utf-8"?>
<!-- Generator: Adobe Illustrator 20.1.0, SVG Export Plug-In . SVG Version: 6.00 Build 0)  -->
<svg version="1.1" id="Layer_1" xmlns="http://www.w3.org/2000/svg" xmlns:xlink="http://www.w3.org/1999/xlink" x="0px" y="0px"
	 viewBox="0 0 175 170" style="enable-background:new 0 0 175 170;" xml:space="preserve">
<style type="text/css">
	.st0{opacity:0.59;fill:#ED1C24;}
	.st1{fill:none;stroke:#000000;stroke-miterlimit:10;}
	.st2{font-family:'MyriadPro-Regular';}
	.st3{font-size:9.1988px;}
</style>
<rect x="61.395" y="68.716" class="st0" width="21.161" height="10.357"/>
<rect x="31.688" y="8.302" class="st1" width="111.503" height="149.742"/>
<g>
	<path class="st1" d="M39.836,20.111c4.198,0.02,4.179,4.02,8.378,4.039c4.199,0.02,4.217-3.98,8.416-3.961
		c4.198,0.02,4.179,4.02,8.377,4.039c4.198,0.02,4.216-3.98,8.414-3.961c4.198,0.02,4.179,4.02,8.376,4.039
		c4.198,0.02,4.216-3.98,8.414-3.961c4.199,0.02,4.18,4.02,8.379,4.039c4.2,0.02,4.219-3.98,8.419-3.961
		c4.199,0.02,4.18,4.02,8.379,4.039c4.202,0.02,4.22-3.98,8.422-3.961s4.183,4.02,8.385,4.039"/>
</g>
<g>
	<path class="st1" d="M39.768,36.388c4.198,0.02,4.179,4.02,8.378,4.039c4.199,0.02,4.217-3.98,8.416-3.961
		c4.198,0.02,4.179,4.02,8.377,4.039c4.198,0.02,4.216-3.98,8.414-3.961c4.198,0.02,4.179,4.02,8.376,4.039
		c4.198,0.02,4.216-3.98,8.414-3.961c4.199,0.02,4.18,4.02,8.379,4.039c4.2,0.02,4.219-3.98,8.419-3.961
		c4.199,0.02,4.18,4.02,8.379,4.039c4.202,0.02,4.22-3.98,8.422-3.961c4.202,0.02,4.183,4.02,8.385,4.039"/>
</g>
<g>
	<path class="st1" d="M39.701,52.665c4.198,0.02,4.179,4.02,8.378,4.039c4.199,0.02,4.217-3.98,8.416-3.961
		c4.198,0.02,4.179,4.02,8.377,4.039c4.198,0.02,4.216-3.98,8.414-3.961c4.198,0.02,4.179,4.02,8.376,4.039
		c4.198,0.02,4.216-3.98,8.414-3.961c4.199,0.02,4.18,4.02,8.379,4.039c4.2,0.02,4.219-3.98,8.419-3.961
		c4.199,0.02,4.18,4.02,8.379,4.039c4.202,0.02,4.22-3.98,8.422-3.961c4.202,0.02,4.183,4.02,8.385,4.039"/>
</g>
<text transform="matrix(0.943 0 0 1 41.4912 76.916)"><tspan x="0" y="0" class="st2 st3">Hello </tspan><tspan x="21.948" y="0" class="st2 st3">Wrld!</tspan></text>
<g>
	<path class="st1" d="M36.377,88.413c4.198,0.02,4.179,4.02,8.378,4.039c4.199,0.02,4.217-3.98,8.416-3.961
		c4.198,0.02,4.179,4.02,8.377,4.039c4.198,0.02,4.216-3.98,8.414-3.961s4.179,4.02,8.376,4.039c4.198,0.02,4.216-3.98,8.414-3.961
		c4.199,0.02,4.18,4.02,8.379,4.039c4.2,0.02,4.219-3.98,8.419-3.961c4.199,0.02,4.18,4.02,8.379,4.039
		c4.202,0.02,4.22-3.98,8.422-3.961c4.202,0.02,4.183,4.02,8.385,4.039"/>
</g>
<g>
	<path class="st1" d="M36.377,103.109c4.198,0.02,4.179,4.02,8.378,4.039c4.199,0.02,4.217-3.98,8.416-3.961
		c4.198,0.02,4.179,4.02,8.377,4.039c4.198,0.02,4.216-3.98,8.414-3.961s4.179,4.02,8.376,4.039c4.198,0.02,4.216-3.98,8.414-3.961
		c4.199,0.02,4.18,4.02,8.379,4.039c4.2,0.02,4.219-3.98,8.419-3.961c4.199,0.02,4.18,4.02,8.379,4.039
		c4.202,0.02,4.22-3.98,8.422-3.961c4.202,0.02,4.183,4.02,8.385,4.039"/>
</g>
<g>
	<path class="st1" d="M36.377,119.386c4.198,0.02,4.179,4.02,8.378,4.039c4.199,0.02,4.217-3.98,8.416-3.961
		c4.198,0.02,4.179,4.02,8.377,4.039c4.198,0.02,4.216-3.98,8.414-3.961s4.179,4.02,8.376,4.039c4.198,0.02,4.216-3.98,8.414-3.961
		c4.199,0.02,4.18,4.02,8.379,4.039c4.2,0.02,4.219-3.98,8.419-3.961c4.199,0.02,4.18,4.02,8.379,4.039
		c4.202,0.02,4.22-3.98,8.422-3.961c4.202,0.02,4.183,4.02,8.385,4.039"/>
</g>
<g>
	<path class="st1" d="M87.439,71.895c4.597,0,4.597,4,9.194,4c4.598,0,4.598-4,9.197-4c4.597,0,4.597,4,9.194,4c4.6,0,4.6-4,9.2-4
		c4.6,0,4.6,4,9.2,4"/>
</g>
<g>
	<path class="st1" d="M36.377,135.664c4.198,0.02,4.179,4.02,8.378,4.039c4.199,0.02,4.217-3.98,8.416-3.961
		c4.198,0.02,4.179,4.02,8.377,4.039c4.198,0.02,4.216-3.98,8.414-3.961s4.179,4.02,8.376,4.039c4.198,0.02,4.216-3.98,8.414-3.961
		c4.199,0.02,4.18,4.02,8.379,4.039c4.2,0.02,4.219-3.98,8.419-3.961c4.199,0.02,4.18,4.02,8.379,4.039
		c4.202,0.02,4.22-3.98,8.422-3.961s4.183,4.02,8.385,4.039"/>
</g>
</svg>
