<svg id="Layer_1" data-name="Layer 1" xmlns="http://www.w3.org/2000/svg" viewBox="0 0 242 200"><defs><style>.cls-1{fill:#ed1c24;opacity:0.59;}.cls-2{fill:none;stroke:#231f20;stroke-miterlimit:10;}.cls-3{font-size:9.99px;fill:#231f20;font-family:MyriadPro-Regular, Myriad Pro;}.cls-4{letter-spacing:-0.04em;}.cls-5{letter-spacing:-0.02em;}.cls-6{letter-spacing:0em;}</style></defs><title>texteditor</title><rect class="cls-1" x="78.82" y="83.37" width="36.27" height="11.24"/><rect class="cls-2" x="27.9" y="17.79" width="191.12" height="162.55"/><path class="cls-2" d="M41.86,30.78c7.2,0,7.18,4,14.38,4s7.21-4,14.41-4,7.18,4,14.38,4,7.21-4,14.4-4,7.18,4,14.38,4,7.21-4,14.41-4,7.18,4,14.38,4,7.21-4,14.41-4,7.18,4,14.38,4,7.21-4,14.41-4,7.19,4,14.39,4"/><path class="cls-2" d="M41.74,48.45c7.2,0,7.18,4,14.38,4s7.21-4,14.41-4,7.18,4,14.38,4,7.21-4,14.4-4,7.18,4,14.38,4,7.21-4,14.41-4,7.18,4,14.38,4,7.21-4,14.41-4,7.18,4,14.38,4,7.21-4,14.41-4,7.19,4,14.39,4"/><path class="cls-2" d="M41.63,66.12c7.2,0,7.18,4,14.38,4s7.21-4,14.41-4,7.18,4,14.38,4,7.21-4,14.4-4,7.18,4,14.38,4,7.21-4,14.41-4,7.18,4,14.38,4,7.21-4,14.41-4,7.18,4,14.38,4,7.21-4,14.41-4,7.19,4,14.39,4"/><text class="cls-3" transform="translate(45.06 92.27) scale(1.49 1)">Hello<tspan class="cls-4" x="21.71" y="0"> </tspan><tspan class="cls-5" x="23.47" y="0">W</tspan><tspan class="cls-6" x="31.75" y="0">r</tspan><tspan x="35.06" y="0">ld!</tspan></text><path class="cls-2" d="M35.93,104.93c7.2,0,7.18,4,14.38,4s7.21-4,14.41-4,7.18,4,14.38,4,7.21-4,14.4-4,7.18,4,14.38,4,7.21-4,14.41-4,7.18,4,14.38,4,7.21-4,14.41-4,7.18,4,14.38,4,7.21-4,14.41-4,7.19,4,14.39,4"/><path class="cls-2" d="M35.93,120.88c7.2,0,7.18,4,14.38,4s7.21-4,14.41-4,7.18,4,14.38,4,7.21-4,14.4-4,7.18,4,14.38,4,7.21-4,14.41-4,7.18,4,14.38,4,7.21-4,14.41-4,7.18,4,14.38,4,7.21-4,14.41-4,7.19,4,14.39,4"/><path class="cls-2" d="M35.93,138.55c7.2,0,7.18,4,14.38,4s7.21-4,14.41-4,7.18,4,14.38,4,7.21-4,14.4-4,7.18,4,14.38,4,7.21-4,14.41-4,7.18,4,14.38,4,7.21-4,14.41-4,7.18,4,14.38,4,7.21-4,14.41-4,7.19,4,14.39,4"/><path class="cls-2" d="M123.46,87c7.88,0,7.88,4,15.76,4s7.88-4,15.76-4,7.88,4,15.76,4,7.88-4,15.77-4,7.88,4,15.77,4"/><path class="cls-2" d="M35.93,156.22c7.2,0,7.18,4,14.38,4s7.21-4,14.41-4,7.18,4,14.38,4,7.21-4,14.4-4,7.18,4,14.38,4,7.21-4,14.41-4,7.18,4,14.38,4,7.21-4,14.41-4,7.18,4,14.38,4,7.21-4,14.41-4,7.19,4,14.39,4"/></svg>