<?xml version="1.0" encoding="utf-8"?>
<!-- Generator: Adobe Illustrator 20.1.0, SVG Export Plug-In . SVG Version: 6.00 Build 0)  -->
<svg version="1.1" id="Layer_1" xmlns="http://www.w3.org/2000/svg" xmlns:xlink="http://www.w3.org/1999/xlink" x="0px" y="0px"
	 viewBox="0 0 240 120" style="enable-background:new 0 0 240 120;" xml:space="preserve">
<style type="text/css">
	.st0{opacity:0.59;fill:#ED1C24;}
	.st1{fill:none;stroke:#000000;stroke-miterlimit:10;}
	.st2{font-family:'MyriadPro-Regular';}
	.st3{font-size:7px;}
</style>
<rect x="88.16" y="48.817" class="st0" width="17.076" height="7.881"/>
<rect x="64.188" y="2.844" class="st1" width="89.976" height="113.948"/>
<g>
	<path class="st1" d="M70.764,11.352c3.388,0.015,3.37,4.015,6.758,4.03c3.388,0.015,3.406-3.985,6.794-3.97
		c3.386,0.015,3.368,4.015,6.754,4.03c3.387,0.015,3.405-3.985,6.792-3.97s3.37,4.015,6.757,4.03
		c3.387,0.015,3.405-3.985,6.792-3.97c3.388,0.015,3.371,4.015,6.759,4.03c3.386,0.015,3.404-3.985,6.79-3.97
		c3.389,0.015,3.372,4.015,6.761,4.03c3.392,0.015,3.409-3.985,6.801-3.97c3.392,0.015,3.374,4.015,6.766,4.03"/>
</g>
<g>
	<path class="st1" d="M70.71,23.738c3.388,0.015,3.37,4.015,6.758,4.03c3.388,0.015,3.406-3.985,6.794-3.97
		c3.386,0.015,3.368,4.015,6.754,4.03c3.387,0.015,3.405-3.985,6.792-3.97c3.387,0.015,3.37,4.015,6.757,4.03
		c3.387,0.015,3.405-3.985,6.792-3.97c3.388,0.015,3.371,4.015,6.759,4.03c3.386,0.015,3.404-3.985,6.79-3.97
		c3.389,0.015,3.372,4.015,6.761,4.03c3.392,0.015,3.409-3.985,6.801-3.97s3.374,4.015,6.766,4.03"/>
</g>
<g>
	<path class="st1" d="M70.655,36.125c3.388,0.015,3.37,4.015,6.758,4.03c3.388,0.015,3.406-3.985,6.794-3.97
		c3.386,0.015,3.368,4.015,6.754,4.03c3.387,0.015,3.405-3.985,6.792-3.97c3.387,0.015,3.37,4.015,6.757,4.03
		c3.387,0.015,3.405-3.985,6.792-3.97c3.388,0.015,3.371,4.015,6.759,4.03c3.386,0.015,3.404-3.985,6.79-3.97
		c3.389,0.015,3.372,4.015,6.761,4.03c3.392,0.015,3.409-3.985,6.801-3.97c3.392,0.015,3.374,4.015,6.766,4.03"/>
</g>
<text transform="matrix(1 0 0 1 72.0985 55.0566)"><tspan x="0" y="0" class="st2 st3">Hello </tspan><tspan x="16.702" y="0" class="st2 st3">Wrld!</tspan></text>
<g>
	<path class="st1" d="M67.973,63.328c3.388,0.015,3.37,4.015,6.758,4.03c3.388,0.015,3.406-3.985,6.794-3.97
		c3.386,0.015,3.368,4.015,6.754,4.03c3.387,0.015,3.405-3.985,6.792-3.97s3.37,4.015,6.757,4.03
		c3.387,0.015,3.405-3.985,6.792-3.97c3.388,0.015,3.371,4.015,6.759,4.03c3.386,0.015,3.404-3.985,6.79-3.97
		c3.389,0.015,3.372,4.015,6.761,4.03c3.392,0.015,3.409-3.985,6.801-3.97c3.392,0.015,3.374,4.015,6.766,4.03"/>
</g>
<g>
	<path class="st1" d="M67.973,74.511c3.388,0.015,3.37,4.015,6.758,4.03c3.388,0.015,3.406-3.985,6.794-3.97
		c3.386,0.015,3.368,4.015,6.754,4.03c3.387,0.015,3.405-3.985,6.792-3.97s3.37,4.015,6.757,4.03
		c3.387,0.015,3.405-3.985,6.792-3.97c3.388,0.015,3.371,4.015,6.759,4.03c3.386,0.015,3.404-3.985,6.79-3.97
		c3.389,0.015,3.372,4.015,6.761,4.03c3.392,0.015,3.409-3.985,6.801-3.97s3.374,4.015,6.766,4.03"/>
</g>
<g>
	<path class="st1" d="M67.973,86.897c3.388,0.015,3.37,4.015,6.758,4.03c3.388,0.015,3.406-3.985,6.794-3.97
		c3.386,0.015,3.368,4.015,6.754,4.03c3.387,0.015,3.405-3.985,6.792-3.97s3.37,4.015,6.757,4.03
		c3.387,0.015,3.405-3.985,6.792-3.97c3.388,0.015,3.371,4.015,6.759,4.03c3.386,0.015,3.404-3.985,6.79-3.97
		c3.389,0.015,3.372,4.015,6.761,4.03c3.392,0.015,3.409-3.985,6.801-3.97c3.392,0.015,3.374,4.015,6.766,4.03"/>
</g>
<g>
	<path class="st1" d="M109.176,50.758c3.709,0,3.709,4,7.419,4c3.711,0,3.711-4,7.421-4c3.709,0,3.709,4,7.419,4
		c3.712,0,3.712-4,7.424-4c3.712,0,3.712,4,7.424,4"/>
</g>
<g>
	<path class="st1" d="M67.973,99.284c3.388,0.015,3.37,4.015,6.758,4.03c3.388,0.015,3.406-3.985,6.794-3.97
		c3.386,0.015,3.368,4.015,6.754,4.03c3.387,0.015,3.405-3.985,6.792-3.97c3.387,0.015,3.37,4.015,6.757,4.03
		c3.387,0.015,3.405-3.985,6.792-3.97c3.388,0.015,3.371,4.015,6.759,4.03c3.386,0.015,3.404-3.985,6.79-3.97
		c3.389,0.015,3.372,4.015,6.761,4.03c3.392,0.015,3.409-3.985,6.801-3.97c3.392,0.015,3.374,4.015,6.766,4.03"/>
</g>
</svg>
