<svg id="Layer_1" data-name="Layer 1" xmlns="http://www.w3.org/2000/svg" viewBox="0 0 112.5 136.29"><defs><style>.cls-1{fill:#ed1c24;opacity:0.59;}.cls-2{fill:none;stroke:#231f20;stroke-miterlimit:10;}.cls-3{font-size:8.31px;fill:#231f20;font-family:MyriadPro-Regular, Myriad Pro;}.cls-4{letter-spacing:-0.04em;}.cls-5{letter-spacing:-0.02em;}.cls-6{letter-spacing:0em;}</style></defs><title>texteditor</title><rect class="cls-1" x="30.21" y="55.08" width="21.16" height="9.36"/><rect class="cls-2" x="0.5" y="0.5" width="111.5" height="135.29"/><path class="cls-2" d="M39.84,16.08c4.2,0,4.18,4,8.38,4s4.22-4,8.41-4,4.18,4,8.38,4,4.21-4,8.41-4,4.18,4,8.38,4,4.21-4,8.41-4,4.18,4,8.38,4,4.22-4,8.42-4,4.18,4,8.38,4,4.22-4,8.42-4,4.18,4,8.39,4" transform="translate(-31.19 -5.1)"/><path class="cls-2" d="M39.77,30.78c4.2,0,4.18,4,8.38,4s4.22-4,8.41-4,4.18,4,8.38,4,4.21-4,8.41-4,4.18,4,8.38,4,4.21-4,8.41-4,4.18,4,8.38,4,4.22-4,8.42-4,4.18,4,8.38,4,4.22-4,8.42-4,4.18,4,8.39,4" transform="translate(-31.19 -5.1)"/><path class="cls-2" d="M39.7,45.49c4.2,0,4.18,4,8.38,4s4.22-4,8.41-4,4.18,4,8.38,4,4.21-4,8.41-4,4.18,4,8.38,4,4.21-4,8.41-4,4.18,4,8.38,4,4.22-4,8.42-4,4.18,4,8.38,4,4.22-4,8.42-4,4.18,4,8.39,4" transform="translate(-31.19 -5.1)"/><text class="cls-3" transform="translate(10.51 62.49) scale(1.04 1)">Hello<tspan class="cls-4" x="18.07" y="0"> </tspan><tspan class="cls-5" x="19.53" y="0">W</tspan><tspan class="cls-6" x="26.43" y="0">r</tspan><tspan x="29.18" y="0">ld!</tspan></text><path class="cls-2" d="M36.38,77.79c4.2,0,4.18,4,8.38,4s4.22-4,8.41-4,4.18,4,8.38,4,4.21-4,8.41-4,4.18,4,8.38,4,4.21-4,8.41-4,4.18,4,8.38,4,4.22-4,8.42-4,4.18,4,8.38,4,4.22-4,8.42-4,4.18,4,8.39,4" transform="translate(-31.19 -5.1)"/><path class="cls-2" d="M36.38,91.07c4.2,0,4.18,4,8.38,4s4.22-4,8.41-4,4.18,4,8.38,4,4.21-4,8.41-4,4.18,4,8.38,4,4.21-4,8.41-4,4.18,4,8.38,4,4.22-4,8.42-4,4.18,4,8.38,4,4.22-4,8.42-4,4.18,4,8.39,4" transform="translate(-31.19 -5.1)"/><path class="cls-2" d="M36.38,105.77c4.2,0,4.18,4,8.38,4s4.22-4,8.41-4,4.18,4,8.38,4,4.21-4,8.41-4,4.18,4,8.38,4,4.21-4,8.41-4,4.18,4,8.38,4,4.22-4,8.42-4,4.18,4,8.38,4,4.22-4,8.42-4,4.18,4,8.39,4" transform="translate(-31.19 -5.1)"/><path class="cls-2" d="M87.44,62.86c4.6,0,4.6,4,9.19,4s4.6-4,9.2-4,4.6,4,9.19,4,4.6-4,9.2-4,4.6,4,9.2,4" transform="translate(-31.19 -5.1)"/><path class="cls-2" d="M36.38,120.48c4.2,0,4.18,4,8.38,4s4.22-4,8.41-4,4.18,4,8.38,4,4.21-4,8.41-4,4.18,4,8.38,4,4.21-4,8.41-4,4.18,4,8.38,4,4.22-4,8.42-4,4.18,4,8.38,4,4.22-4,8.42-4,4.18,4,8.39,4" transform="translate(-31.19 -5.1)"/></svg>